<svg xmlns="http://www.w3.org/2000/svg" viewBox="0 0 495 518" width="495" height="518"><title>Africa</title><path fill="#000" d="M84.3 23.1Q87.5 16.8 98.0 18.6Q108.5 20.3 116.5 18.9Q124.6 17.5 137.2 13.7Q149.8 9.8 166.6 9.5Q183.4 9.1 190.8 7.7Q198.1 6.3 201.9 7.4Q205.8 8.4 204.4 12.6Q203.0 16.8 201.2 23.5Q199.5 30.1 204.4 32.9Q209.3 35.7 215.2 36.4Q221.2 37.1 227.8 38.9Q234.5 40.6 242.9 45.9Q251.3 51.1 256.6 53.2Q261.8 55.3 265.6 49.0Q269.5 42.7 278.2 40.3Q287.0 37.8 291.9 40.3Q296.8 42.7 301.0 44.5Q305.2 46.2 313.2 47.6Q321.3 49.0 329.7 49.0Q338.1 49.0 346.5 48.7Q354.9 48.3 355.6 53.2Q356.3 58.1 360.9 67.6Q365.4 77.0 371.4 88.2Q377.3 99.4 382.2 106.8Q387.1 114.1 388.1 122.2Q389.2 130.2 394.1 136.2Q399.0 142.1 402.1 150.2Q405.3 158.2 411.2 162.8Q417.2 167.3 422.4 171.9Q427.7 176.4 429.1 181.3Q430.5 186.2 437.1 190.4Q443.8 194.6 454.3 191.8Q464.8 189.0 476.4 186.9Q487.9 184.8 487.5 189.7Q487.2 194.6 482.3 204.8Q477.4 214.9 471.1 225.4Q464.8 235.9 455.4 244.7Q445.9 253.4 436.1 261.8Q426.3 270.2 420.7 276.9Q415.1 283.5 410.9 289.5Q406.7 295.4 405.3 305.2Q403.9 315.0 407.0 327.2Q410.2 339.5 411.6 354.2Q413.0 368.9 407.4 376.2Q401.8 383.6 394.8 388.1Q387.8 392.7 380.4 399.4Q373.1 406.0 375.2 419.0Q377.3 431.9 368.2 440.3Q359.1 448.7 357.3 457.1Q355.6 465.5 350.7 471.1Q345.8 476.7 340.6 482.6Q335.3 488.6 329.7 493.5Q324.1 498.4 316.0 501.9Q308.0 505.4 296.1 505.8Q284.2 506.1 276.5 508.6Q268.8 511.0 263.2 507.8Q257.6 504.7 256.2 498.0Q254.8 491.4 251.3 484.4Q247.8 477.4 246.0 472.5Q244.3 467.6 239.7 460.6Q235.2 453.6 232.7 440.7Q230.3 427.7 226.1 417.6Q221.9 407.4 217.3 397.6Q212.8 387.8 213.1 380.8Q213.5 373.8 218.0 364.7Q222.6 355.6 224.0 348.6Q225.4 341.6 223.3 335.3Q221.2 329.0 218.1 319.2Q214.9 309.4 213.5 305.2Q212.1 301.0 206.8 294.4Q201.6 287.7 197.8 281.1Q193.9 274.4 191.8 273.4Q189.7 272.3 192.1 268.5Q194.6 264.6 196.0 258.0Q197.4 251.3 197.1 245.4Q196.7 239.4 192.5 237.7Q188.3 235.9 183.0 236.3Q177.8 236.6 174.3 237.0Q170.8 237.3 167.3 231.7Q163.8 226.1 158.2 224.4Q152.6 222.6 149.1 223.0Q145.6 223.3 141.4 224.0Q137.2 224.7 132.3 226.8Q127.4 228.9 120.7 231.7Q114.1 234.5 107.4 232.4Q100.8 230.3 93.8 231.7Q86.8 233.1 81.5 234.9Q76.3 236.6 70.3 233.1Q64.4 229.6 58.8 226.5Q53.2 223.3 49.0 219.5Q44.8 215.6 40.6 211.8Q36.4 207.9 34.6 204.4Q32.9 200.9 28.3 196.0Q23.8 191.1 21.7 187.6Q19.6 184.1 16.1 178.5Q12.6 172.9 9.4 168.7Q6.3 164.5 9.8 160.0Q13.3 155.4 15.0 148.1Q16.8 140.7 16.1 136.2Q15.4 131.6 12.6 126.7Q9.8 121.8 13.6 111.7Q17.5 101.5 22.4 93.1Q27.3 84.7 32.9 78.4Q38.5 72.1 44.8 69.0Q51.1 65.8 56.3 60.2Q61.6 54.6 60.9 50.8Q60.2 46.9 64.4 42.0Q68.6 37.1 72.1 34.7Q75.6 32.2 78.4 30.8Q81.2 29.4 84.3 23.1ZM470.0 356.3Q473.9 351.4 477.4 358.4Q480.9 365.4 481.6 370.7Q482.3 375.9 478.5 384.7Q474.6 393.4 471.8 403.9Q469.0 414.4 465.5 424.9Q462.0 435.4 460.2 438.9Q458.5 442.4 452.9 444.2Q447.3 445.9 442.1 444.9Q436.8 443.8 434.7 437.9Q432.6 431.9 432.2 426.7Q431.9 421.4 435.4 412.7Q438.9 403.9 439.2 396.9Q439.6 389.9 438.2 385.4Q436.8 380.8 442.4 379.1Q448.0 377.3 452.9 373.1Q457.8 368.9 462.0 365.1Q466.2 361.2 470.0 356.3Z"/></svg>
