<svg width="546" height="1183" viewBox="0 0 546 1183" fill="none" xmlns="http://www.w3.org/2000/svg">
<g clip-path="url(#clip0_171_1475)">
<rect width="96" height="96" rx="45" transform="matrix(-1 0 0 1 328 268)" fill="#9333EA"/>
<path d="M206 1065C206 1040.15 226.147 1020 251 1020H302L302 1071C302 1095.85 281.853 1116 257 1116H206L206 1065Z" fill="#C084FC"/>
<path d="M155 474C130.147 474 110 494.147 110 519L110 569L161 569C185.853 569 206 548.853 206 524L206 474L155 474Z" fill="#7E22CE"/>
<path d="M0 220L2.09815e-06 268C3.25692e-06 294.51 21.4903 316 48 316L96 316L96 268C96 241.49 74.5097 220 48 220L0 220Z" fill="#F97316"/>
<rect x="270" y="771" width="116" height="116" rx="58" fill="#FB923C"/>
<path d="M546 829C546 793.15 537.159 757.853 520.259 726.236C503.359 694.618 478.923 667.657 449.114 647.74C419.306 627.822 385.045 615.564 349.368 612.05C313.69 608.536 277.696 613.875 244.575 627.594C211.454 641.314 182.227 662.99 159.484 690.702C136.741 718.415 121.183 751.309 114.189 786.47C107.195 821.632 108.98 857.975 119.387 892.282C129.794 926.589 148.501 957.799 173.851 983.149L250.925 906.075C238.25 893.4 228.897 877.794 223.694 860.641C218.49 843.488 217.597 825.316 221.094 807.735C224.591 790.154 232.37 773.707 243.742 759.851C255.113 745.995 269.727 735.157 286.288 728.297C302.848 721.437 320.845 718.768 338.684 720.525C356.523 722.282 373.653 728.411 388.557 738.37C403.461 748.328 415.68 761.809 424.129 777.618C432.579 793.426 437 811.075 437 829H546Z" fill="#6B21A8"/>
<path d="M450 1132C450 1107.15 470.147 1087 495 1087H546V1138C546 1162.85 525.853 1183 501 1183H450V1132Z" fill="#EA580C"/>
<path d="M450 1132C450 1107.15 429.853 1087 405 1087H355V1138C355 1162.85 375.147 1183 400 1183H450V1132Z" fill="#F97316"/>
<rect width="96" height="96" transform="matrix(-1 0 0 1 450 122)" fill="#FFEDD5"/>
<path d="M546 122H498C471.49 122 450 143.49 450 170V218H498C524.51 218 546 196.51 546 170V122Z" fill="#F97316"/>
<rect width="96" height="96" rx="45" transform="matrix(-1 0 0 1 478 428)" fill="#9333EA"/>
<rect width="96" height="96" rx="45" transform="matrix(-1 0 0 1 478 0)" fill="#FB923C"/>
<path d="M302 119C302 94.1472 281.853 74 257 74H206V125C206 149.853 226.147 170 251 170H302V119Z" fill="#A855F7"/>
<path d="M516 427.5C516 404.824 506.992 383.077 490.958 367.042C474.923 351.008 453.176 342 430.5 342C407.824 342 386.077 351.008 370.042 367.042C354.008 383.077 345 404.824 345 427.5L430.5 427.5L516 427.5Z" fill="#E9D5FF"/>
</g>
<defs>
<clipPath id="clip0_171_1475">
<rect width="546" height="1183" fill="white" transform="matrix(-1 0 0 1 546 0)"/>
</clipPath>
</defs>
</svg>
